# xmcd
#
# Track frame offsets:
#	150
#	12102
#	23062
#	35112
#	48877
#	63322
#	82712
#	97880
#	109660
#	125507
#	140795
#	154535
#	165287
#	182870
#	196442
#	210325
#	223797
#	237387
#	248120
#	259805
#	273330
#	284580
#	295532
#	307397
#	322585
#	333537
#
# Disc length: 4618 seconds
#
# Revision: 1
# Processed by: cddbd v1.4PL0 Copyright (c) Steve Scherf et al.
# Submitted via: CDmax 2.0
#
DISCID=7112081a
DTITLE=Etta James - The Chessbox - 1962-1969
DYEAR=2000
DGENRE=R&b
TTITLE0=Would it make any difference to you
TTITLE1=Look who's blue
TTITLE2=Pay back
TTITLE3=Two sides (to every story)
TTITLE4=At last
TTITLE5=Baby what you want me to do
TTITLE6=Lovin' you more every day
TTITLE7=I wish someone would care
TTITLE8=Bobby was his name
TTITLE9=Only time will tell
TTITLE10=(I don't need nobody to tell me) how to treat my man
TTITLE11=In the basement (part 1)
TTITLE12=Lover man (oh where can he be?)
TTITLE13=Do I make myself clear
TTITLE14=I prefer you
TTITLE15=It must be your love
TTITLE16=842-3089 (call my Mama)
TTITLE17=Tell Mama
TTITLE18=I'd rather go blind
TTITLE19=Do right woman, do right man
TTITLE20=Security
TTITLE21=I worship the ground you walk on
TTITLE22=You took it
TTITLE23=Almost persuaded
TTITLE24=You got it
TTITLE25=Light my fire
EXTD=
EXTT0=
EXTT1=
EXTT2=
EXTT3=
EXTT4=
EXTT5=
EXTT6=
EXTT7=
EXTT8=
EXTT9=
EXTT10=
EXTT11=
EXTT12=
EXTT13=
EXTT14=
EXTT15=
EXTT16=
EXTT17=
EXTT18=
EXTT19=
EXTT20=
EXTT21=
EXTT22=
EXTT23=
EXTT24=
EXTT25=
PLAYORDER=
